<?xml version="1.0" encoding="UTF-8" standalone="no"?>
<svg
   viewBox="0 0 841.9 595.3"
   version="1.1"
   id="svg10"
   sodipodi:docname="logo.svg"
   inkscape:version="1.2.2 (b0a8486541, 2022-12-01)"
   inkscape:export-filename="logo.png"
   inkscape:export-xdpi="96"
   inkscape:export-ydpi="96"
   xmlns:inkscape="http://www.inkscape.org/namespaces/inkscape"
   xmlns:sodipodi="http://sodipodi.sourceforge.net/DTD/sodipodi-0.dtd"
   xmlns="http://www.w3.org/2000/svg"
   xmlns:svg="http://www.w3.org/2000/svg">
  <defs
     id="defs14">
    <inkscape:perspective
       sodipodi:type="inkscape:persp3d"
       inkscape:vp_x="-357.35204 : 331.91909 : 1"
       inkscape:vp_y="0 : 1181.0467 : 0"
       inkscape:vp_z="1220.9008 : 331.91909 : 1"
       inkscape:persp3d-origin="431.77437 : 214.73957 : 1"
       id="perspective519" />
  </defs>
  <sodipodi:namedview
     id="namedview12"
     pagecolor="#505050"
     bordercolor="#ffffff"
     borderopacity="1"
     inkscape:showpageshadow="0"
     inkscape:pageopacity="0"
     inkscape:pagecheckerboard="1"
     inkscape:deskcolor="#505050"
     showgrid="false"
     inkscape:zoom="0.62003989"
     inkscape:cx="204.01913"
     inkscape:cy="196.76153"
     inkscape:window-width="1360"
     inkscape:window-height="707"
     inkscape:window-x="0"
     inkscape:window-y="37"
     inkscape:window-maximized="1"
     inkscape:current-layer="svg10" />
  <g
     sodipodi:type="inkscape:box3d"
     id="g521"
     style="fill:#550000;stroke-width:7"
     inkscape:perspectiveID="#perspective519"
     inkscape:corner0="0.48233942 : 0.2417095 : 0 : 1"
     inkscape:corner7="-0.092189776 : -0.093421409 : 0.25 : 1">
    <path
       sodipodi:type="inkscape:box3dside"
       id="path533"
       style="fill:#e9e9ff;fill-rule:evenodd;stroke:none;stroke-linejoin:round"
       inkscape:box3dsidetype="11"
       d="M 325.93763,166.23442 665,118.02834 V 459.8851 L 325.93763,394.71461 Z"
       points="665,118.02834 665,459.8851 325.93763,394.71461 325.93763,166.23442 " />
    <path
       sodipodi:type="inkscape:box3dside"
       id="path523"
       style="fill:#353564;fill-rule:evenodd;stroke:none;stroke-width:7.85877;stroke-linejoin:round"
       inkscape:box3dsidetype="6"
       d="M 175,149.85044 V 416.86435 L 325.93763,394.71461 V 166.23442 Z"
       points="175,416.86435 325.93763,394.71461 325.93763,166.23442 175,149.85044 " />
    <path
       sodipodi:type="inkscape:box3dside"
       id="path531"
       style="fill:#afafde;fill-rule:evenodd;stroke:none;stroke-linejoin:round"
       inkscape:box3dsidetype="13"
       d="M 175,416.86435 511.9116,513.99998 665,459.8851 325.93763,394.71461 Z"
       points="511.9116,513.99998 665,459.8851 325.93763,394.71461 175,416.86435 " />
    <path
       sodipodi:type="inkscape:box3dside"
       id="path525"
       style="fill:#4d4d9f;fill-rule:evenodd;stroke:none;stroke-linejoin:round"
       inkscape:box3dsidetype="5"
       d="M 175,149.85044 511.9116,77.999996 665,118.02834 325.93763,166.23442 Z"
       points="511.9116,77.999996 665,118.02834 325.93763,166.23442 175,149.85044 " />
    <path
       sodipodi:type="inkscape:box3dside"
       id="path529"
       style="fill:#a02c2c"
       inkscape:box3dsidetype="14"
       d="M 511.9116,77.999996 V 513.99998 L 665,459.8851 V 118.02834 Z"
       points="511.9116,513.99998 665,459.8851 665,118.02834 511.9116,77.999996 " />
    <path
       sodipodi:type="inkscape:box3dside"
       id="path527"
       style="fill:#ff5555;stroke-width:7.85877"
       inkscape:box3dsidetype="3"
       d="M 175,149.85044 511.9116,77.999996 V 513.99998 L 175,416.86435 Z"
       points="511.9116,77.999996 511.9116,513.99998 175,416.86435 175,149.85044 " />
  </g>
  <path
     style="fill:#483737;stroke-width:7.8144"
     d="m 461.39313,88.684628 c 52.18309,162.339302 46.53621,406.959052 46.53621,406.959052 0,0 -445.090976,-64.06186 -303.51101,-169.82858 141.58,-105.76672 256.9748,-237.130472 256.9748,-237.130472 z"
     id="path799" />
  <text
     xml:space="preserve"
     style="font-weight:bold;font-size:82.7112px;font-family:'Linux Biolinum Keyboard O';-inkscape-font-specification:'Linux Biolinum Keyboard O Bold';text-align:justify;fill:#ffd5d5;stroke-width:6.78487"
     x="313.58093"
     y="274.33664"
     id="text855"
     transform="matrix(0.82182374,0.226651,-0.18929172,1.1646011,0,0)"><tspan
       id="tspan853"
       x="313.58093"
       y="274.33664"
       sodipodi:role="line"
       style="fill:#ffd5d5;stroke-width:6.78487">ASRH</tspan></text>
</svg>
